<svg xmlns="http://www.w3.org/2000/svg" xmlns:svg="http://www.w3.org/2000/svg" xmlns:xlink="http://www.w3.org/1999/xlink" id="svg2995" width="50" height="50" version="1.1" viewBox="0 0 50 50"><metadata id="metadata2999"/><title id="title2499">Group</title><desc id="desc2501">Created with Sketch.</desc><defs id="defs2524"><polygon id="path-1" points="98.024 70.049 0 70.049 0 .417 98.024 .417"/><polygon id="path-3" points="43.441 75.798 .442 75.798 .442 .195 43.441 .195"/><polygon id="path-5" points="53.222 349.965 .132 349.965 .132 0 53.222 0"/><polygon id="path-7" points="93.933 106.942 .476 106.942 .476 0 93.933 0"/><polygon id="path-9" points="291.686 219.882 .461 219.882 .461 .103 291.686 .103"/><polygon id="path-11" points="71.045 81.048 0 81.048 0 .414 71.045 .414"/><polygon id="path-13" points="297.5 109.5 .449 109.5 .449 .506 297.5 .506"/><polygon id="path-15" points="350 246.58 0 246.58 0 .194 350 .194"/><polygon id="path-17" points="86.917 130.093 .053 130.093 .053 .009 86.917 .009"/><polygon id="path-19" points="288.317 134.662 0 134.662 0 .009 288.317 .009"/><polygon id="path-21" points="7.752 207.545 .169 207.545 .169 0 7.752 0"/><polygon id="path-23" points="98.017 219.298 .176 219.298 .176 .486 98.017 .486"/><polygon id="path-25" points="121.406 148.132 .092 148.132 .092 .01 121.406 .01"/><polygon id="path-27" points="84.953 349.965 .512 349.965 .512 0 84.953 0"/><polygon id="path-29" points="350 349.965 0 349.965 0 0 350 0"/><polygon id="path-31" points="213.67 31.913 .461 31.913 .461 0 213.67 0"/><polygon id="path-33" points="59.378 37.941 0 37.941 0 0 59.378 0"/><polygon id="path-35" points="343 242.716 .023 242.716 .023 .316 343 .316"/><polygon id="path-37" points="48.417 113.132 .023 113.132 .023 .144 48.417 .144"/><polygon id="path-39" points="30.917 25.497 .169 25.497 .169 .414 30.917 .414"/><polygon id="path-41" points="143.67 26.347 .425 26.347 .425 0 143.67 0"/><mask id="mask-42" fill="#fff"><use id="use2982" width="100%" height="100%" x="0" y="0" xlink:href="#path-41"/></mask><mask id="mask-40" fill="#fff"><use id="use2954" width="100%" height="100%" x="0" y="0" xlink:href="#path-39"/></mask><mask id="mask-38" fill="#fff"><use id="use2937" width="100%" height="100%" x="0" y="0" xlink:href="#path-37"/></mask><mask id="mask-36" fill="#fff"><use id="use2928" width="100%" height="100%" x="0" y="0" xlink:href="#path-35"/></mask><mask id="mask-34" fill="#fff"><use id="use2917" width="100%" height="100%" x="0" y="0" xlink:href="#path-33"/></mask><mask id="mask-32" fill="#fff"><use id="use2907" width="100%" height="100%" x="0" y="0" xlink:href="#path-31"/></mask><mask id="mask-30" fill="#fff"><use id="use2883" width="100%" height="100%" x="0" y="0" xlink:href="#path-29"/></mask><mask id="mask-28" fill="#fff"><use id="use2868" width="100%" height="100%" x="0" y="0" xlink:href="#path-27"/></mask><mask id="mask-26" fill="#fff"><use id="use2834" width="100%" height="100%" x="0" y="0" xlink:href="#path-25"/></mask><mask id="mask-24" fill="#fff"><use id="use2812" width="100%" height="100%" x="0" y="0" xlink:href="#path-23"/></mask><mask id="mask-22" fill="#fff"><use id="use2799" width="100%" height="100%" x="0" y="0" xlink:href="#path-21"/></mask><mask id="mask-20" fill="#fff"><use id="use2742" width="100%" height="100%" x="0" y="0" xlink:href="#path-19"/></mask><mask id="mask-18" fill="#fff"><use id="use2728" width="100%" height="100%" x="0" y="0" xlink:href="#path-17"/></mask><mask id="mask-16" fill="#fff"><use id="use2700" width="100%" height="100%" x="0" y="0" xlink:href="#path-15"/></mask><mask id="mask-14" fill="#fff"><use id="use2686" width="100%" height="100%" x="0" y="0" xlink:href="#path-13"/></mask><mask id="mask-12" fill="#fff"><use id="use2656" width="100%" height="100%" x="0" y="0" xlink:href="#path-11"/></mask><mask id="mask-10" fill="#fff"><use id="use2643" width="100%" height="100%" x="0" y="0" xlink:href="#path-9"/></mask><mask id="mask-8" fill="#fff"><use id="use2633" width="100%" height="100%" x="0" y="0" xlink:href="#path-7"/></mask><mask id="mask-6" fill="#fff"><use id="use2606" width="100%" height="100%" x="0" y="0" xlink:href="#path-5"/></mask><mask id="mask-4" fill="#fff"><use id="use2589" width="100%" height="100%" x="0" y="0" xlink:href="#path-3"/></mask><mask id="mask-2" fill="#fff"><use id="use2531" width="100%" height="100%" x="0" y="0" xlink:href="#path-1"/></mask></defs><g id="g1832" style="fill:#ff6188;fill-opacity:.24149659"><path style="fill:#ff6188;fill-opacity:.24149659;stroke:none;stroke-width:.05157439px;stroke-linecap:butt;stroke-linejoin:miter;stroke-opacity:1" id="path6385" d="m -4.3558219,42.00005 c -0.549378,-0.003 -1.1107063,0.10939 -1.7217459,0.3599 -1.303552,0.53443 -2.3300851,1.65631 -2.7172656,3.05661 -0.3871792,1.4003 -0.2636901,3.01495 0.6926999,4.43211 0.9563907,1.41717 3.1479095,3.0013 4.5286202,4.07578 C -2.1927981,54.99894 8.426979e-5,58 8.426979e-5,58 8.426979e-5,58 2.1929727,54.99894 3.5736812,53.92445 4.9543964,52.84997 7.1459152,51.26584 8.1023075,49.84867 9.058692,48.43151 9.181949,46.81686 8.7947715,45.41656 8.4075885,44.01626 7.3810561,42.89438 6.0775058,42.35995 4.7739566,41.82552 3.6965817,41.92211 2.4794691,42.41475 1.2623497,42.90729 0.56459906,43.7375 8.426979e-5,44.62576 -0.56442955,43.7375 -1.2621813,42.90729 -2.4792945,42.41471 -3.1258913,42.15302 -3.7331997,42.00301 -4.3558219,42.00005 Z m 0.5595552,1.02784 c 0.5426272,0.003 1.0718727,0.1334 1.6353922,0.36146 1.0607378,0.4293 1.66897865,1.37082 2.16095876979,2.14495 C 0.49207216,44.76017 1.1000752,43.81865 2.1608204,43.38935 c 1.0607372,-0.4293 1.9999301,-0.51362 3.1360031,-0.0478 1.1360674,0.46576 2.0306859,1.4436 2.3681197,2.66399 0.3374353,1.22038 0.2297307,2.62768 -0.6037822,3.86277 C 6.2276505,51.1034 4.3177581,52.48371 3.1144452,53.42015 1.9111232,54.35658 8.426979e-5,56.9722 8.426979e-5,56.9722 c 0,0 -1.91126816979,-2.61562 -3.11459016979,-3.55205 -1.2033141,-0.93644 -3.1132031,-2.31675 -3.9467148,-3.55184 -0.8335128,-1.23509 -0.9409864,-2.64239 -0.6035529,-3.86277 0.3374359,-1.22039 1.2320516,-2.19823 2.3681235,-2.66399 0.5325297,-0.21833 1.0215955,-0.31589 1.5003834,-0.31361 z"/><path id="path6443" d="m 45.644176,42.00004 c -0.54938,-0.003 -1.1107,0.10939 -1.72174,0.35991 -1.30356,0.53443 -2.33009,1.65631 -2.71727,3.0566 -0.38718,1.4003 -0.26369,3.01495 0.6927,4.43212 0.95639,1.41717 3.14791,3.00129 4.52862,4.07578 C 47.80721,54.99893 50.00009,58 50.00009,58 c 0,0 2.19289,-3.00107 3.5736,-4.07555 1.38071,-1.07449 3.57223,-2.65861 4.52862,-4.07578 0.95639,-1.41717 1.07964,-3.03182 0.69247,-4.43212 -0.38719,-1.40029 -1.41372,-2.52217 -2.71727,-3.0566 -1.30355,-0.53443 -2.38092,-0.43784 -3.59804,0.0547 -1.21712,0.49259 -1.91487,1.3228 -2.47938,2.21105 -0.56451,-0.88825 -1.26227,-1.71846 -2.479384,-2.21105 -0.6466,-0.26168 -1.2539,-0.4117 -1.87653,-0.41465 z m 0.55956,1.02785 c 0.54263,0.003 1.07187,0.13339 1.635394,0.36146 1.06074,0.4293 1.66898,1.37082 2.16096,2.14495 0.49199,-0.77413 1.09999,-1.71565 2.16074,-2.14495 1.06073,-0.4293 1.99993,-0.51362 3.136,-0.0478 1.13607,0.46576 2.03068,1.4436 2.36812,2.66398 0.33743,1.22039 0.22973,2.62769 -0.60378,3.86278 -0.83351,1.23508 -2.74341,2.6154 -3.94672,3.55183 -1.20332,0.93644 -3.11436,3.55206 -3.11436,3.55206 0,0 -1.91127,-2.61562 -3.114594,-3.55206 -1.20332,-0.93643 -3.1132,-2.31675 -3.94672,-3.55183 -0.83351,-1.23509 -0.94098,-2.64239 -0.60355,-3.86278 0.33744,-1.22038 1.23205,-2.19822 2.36812,-2.66399 0.53253,-0.21832 1.0216,-0.31588 1.50039,-0.3136 z" style="fill:#ff6188;fill-opacity:.24149659;stroke:none;stroke-width:.05157439px;stroke-linecap:butt;stroke-linejoin:miter;stroke-opacity:1"/><path style="fill:#ff6188;fill-opacity:.24149659;stroke:none;stroke-width:.05157439px;stroke-linecap:butt;stroke-linejoin:miter;stroke-opacity:1" id="path6445" d="m 20.644173,42.00004 c -0.54938,-0.003 -1.1107,0.10939 -1.72174,0.35991 -1.30356,0.53443 -2.33009,1.65631 -2.71727,3.0566 -0.38718,1.4003 -0.26369,3.01495 0.6927,4.43212 0.95639,1.41717 3.14791,3.00129 4.52862,4.07578 C 22.807207,54.99893 25.000087,58 25.000087,58 c 0,0 2.19289,-3.00107 3.5736,-4.07555 1.38071,-1.07449 3.57223,-2.65861 4.52862,-4.07578 0.95639,-1.41717 1.07964,-3.03182 0.69247,-4.43212 -0.38719,-1.40029 -1.41372,-2.52217 -2.71727,-3.0566 -1.30355,-0.53443 -2.38092,-0.43784 -3.59804,0.0547 -1.21712,0.49259 -1.91487,1.3228 -2.47938,2.21105 -0.56451,-0.88825 -1.26227,-1.71846 -2.479384,-2.21105 -0.6466,-0.26168 -1.2539,-0.4117 -1.87653,-0.41465 z m 0.55956,1.02785 c 0.54263,0.003 1.07187,0.13339 1.635394,0.36146 1.06074,0.4293 1.66898,1.37082 2.16096,2.14495 0.49199,-0.77413 1.09999,-1.71565 2.16074,-2.14495 1.06073,-0.4293 1.99993,-0.51362 3.136,-0.0478 1.13607,0.46576 2.03068,1.4436 2.36812,2.66398 0.33743,1.22039 0.22973,2.62769 -0.60378,3.86278 -0.83351,1.23508 -2.74341,2.6154 -3.94672,3.55183 -1.20332,0.93644 -3.11436,3.55206 -3.11436,3.55206 0,0 -1.91127,-2.61562 -3.114594,-3.55206 -1.20332,-0.93643 -3.1132,-2.31675 -3.94672,-3.55183 -0.83351,-1.23509 -0.94098,-2.64239 -0.60355,-3.86278 0.33744,-1.22038 1.23205,-2.19822 2.36812,-2.66399 0.53253,-0.21832 1.0216,-0.31588 1.50039,-0.3136 z"/></g><g id="g1827" style="fill:#ff6188;fill-opacity:.24149659"><path style="fill:#ff6188;fill-opacity:.24149659;stroke:none;stroke-width:.05157439px;stroke-linecap:butt;stroke-linejoin:miter;stroke-opacity:1" id="path6893" d="m -4.3558219,-7.999956 c -0.549378,-0.00257 -1.1107063,0.1093885 -1.7217459,0.3599019 -1.303552,0.5344297 -2.3300851,1.6563108 -2.7172656,3.056609 -0.3871792,1.4002982 -0.2636901,3.0149491 0.6926999,4.4321159 0.9563907,1.4171658 3.1479095,3.0012915 4.5286202,4.0757766 C -2.1927981,4.9989325 8.4234895e-5,8 8.4234895e-5,8 8.4234895e-5,8 2.1929727,4.9989325 3.5736812,3.9244474 4.9543964,2.8499623 7.1459152,1.2658366 8.1023075,-0.1513292 9.058692,-1.568496 9.181949,-3.1831469 8.7947715,-4.5834451 8.4075885,-5.9837433 7.3810561,-7.1056244 6.0775058,-7.6400541 4.7739566,-8.1744838 3.6965817,-8.077888 2.4794691,-7.5852971 1.2623497,-7.0927095 0.56459903,-6.262499 8.4234895e-5,-5.3742465 -0.56442958,-6.262499 -1.2621813,-7.0927095 -2.4792945,-7.5852971 -3.1258913,-7.8469838 -3.7331997,-7.9969947 -4.3558219,-7.9999528 Z m 0.5595552,1.0278468 c 0.5426272,0.00257 1.0718727,0.1333942 1.6353922,0.3614603 1.0607378,0.4292993 1.66897862,1.3708158 2.160958734895,2.1449457 C 0.49207213,-5.2398331 1.1000752,-6.1813496 2.1608204,-6.6106489 c 1.0607372,-0.4292993 1.9999301,-0.513619 3.1360031,-0.047855 1.1360674,0.4657653 2.0306859,1.4436 2.3681197,2.6639868 0.3374353,1.2203869 0.2297307,2.6276848 -0.6037822,3.8627732 C 6.2276505,1.1033438 4.3177581,2.4836587 3.1144452,3.4200939 1.9111232,4.356528 8.4234895e-5,6.972152 8.4234895e-5,6.972152 c 0,0 -1.911268134895,-2.615624 -3.114590134895,-3.5520581 C -4.31782,2.4836587 -6.227709,1.1033438 -7.0612207,-0.1317436 -7.8947335,-1.366832 -8.0022071,-2.7741299 -7.6647736,-3.9945168 c 0.3374359,-1.2203868 1.2320516,-2.1982215 2.3681235,-2.6639879 0.5325297,-0.2183269 1.0215955,-0.3158852 1.5003834,-0.3136045 z"/><path id="path6919" d="m 45.644172,-7.9999562 c -0.54938,-0.00257 -1.1107,0.1093885 -1.72174,0.3599019 -1.30356,0.5344297 -2.33009,1.6563108 -2.71727,3.056609 -0.38718,1.4002982 -0.26369,3.0149491 0.6927,4.4321159 0.95639,1.4171658 3.14791,3.0012915 4.52862,4.0757764 C 47.807206,4.998932 50.000086,8 50.000086,8 c 0,0 2.19289,-3.001068 3.5736,-4.075553 1.38071,-1.0744849 3.57223,-2.6586106 4.52862,-4.0757764 0.95639,-1.4171668 1.07964,-3.0318177 0.69247,-4.4321159 -0.38719,-1.4002982 -1.41372,-2.5221793 -2.71727,-3.056609 -1.30355,-0.5344297 -2.38092,-0.4378339 -3.59804,0.054757 -1.21712,0.4925876 -1.91487,1.3227981 -2.47938,2.2110506 -0.56451,-0.8882525 -1.26227,-1.718463 -2.479384,-2.2110506 -0.6466,-0.2616867 -1.2539,-0.4116976 -1.87653,-0.4146557 z m 0.55956,1.0278468 c 0.54263,0.00257 1.07187,0.1333942 1.635394,0.3614603 1.06074,0.4292993 1.66898,1.3708158 2.16096,2.1449457 0.49199,-0.7741299 1.09999,-1.7156464 2.16074,-2.1449457 1.06073,-0.4292993 1.99993,-0.513619 3.136,-0.047855 1.13607,0.4657653 2.03068,1.4436 2.36812,2.6639868 0.33743,1.2203869 0.22973,2.6276848 -0.60378,3.8627732 -0.83351,1.2350877 -2.74341,2.6154026 -3.94672,3.5518381 -1.20332,0.936434 -3.11436,3.552058 -3.11436,3.552058 0,0 -1.91127,-2.615624 -3.114594,-3.552058 -1.20332,-0.9364355 -3.1132,-2.3167504 -3.94672,-3.5518378 -0.83351,-1.2350884 -0.94098,-2.6423863 -0.60355,-3.8627732 0.33744,-1.2203868 1.23205,-2.1982215 2.36812,-2.6639879 0.53253,-0.2183269 1.0216,-0.3158852 1.50039,-0.3136045 z" style="fill:#ff6188;fill-opacity:.24149659;stroke:none;stroke-width:.05157439px;stroke-linecap:butt;stroke-linejoin:miter;stroke-opacity:1"/><path style="fill:#ff6188;fill-opacity:.24149659;stroke:none;stroke-width:.05157439px;stroke-linecap:butt;stroke-linejoin:miter;stroke-opacity:1" id="path6921" d="m 20.644175,-7.9999562 c -0.54938,-0.00257 -1.1107,0.1093885 -1.72174,0.3599019 -1.30356,0.5344297 -2.33009,1.6563108 -2.71727,3.056609 -0.38718,1.4002982 -0.26369,3.0149491 0.6927,4.4321159 0.95639,1.4171658 3.14791,3.0012915 4.52862,4.0757764 C 22.807209,4.998932 25.000089,8 25.000089,8 c 0,0 2.19289,-3.001068 3.5736,-4.075553 1.38071,-1.0744849 3.57223,-2.6586106 4.52862,-4.0757764 0.95639,-1.4171668 1.07964,-3.0318177 0.69247,-4.4321159 -0.38719,-1.4002982 -1.41372,-2.5221793 -2.71727,-3.056609 -1.30355,-0.5344297 -2.38092,-0.4378339 -3.59804,0.054757 -1.21712,0.4925876 -1.91487,1.3227981 -2.47938,2.2110506 -0.56451,-0.8882525 -1.26227,-1.718463 -2.479384,-2.2110506 -0.6466,-0.2616867 -1.2539,-0.4116976 -1.87653,-0.4146557 z m 0.55956,1.0278468 c 0.54263,0.00257 1.07187,0.1333942 1.635394,0.3614603 1.06074,0.4292993 1.66898,1.3708158 2.16096,2.1449457 0.49199,-0.7741299 1.09999,-1.7156464 2.16074,-2.1449457 1.06073,-0.4292993 1.99993,-0.513619 3.136,-0.047855 1.13607,0.4657653 2.03068,1.4436 2.36812,2.6639868 0.33743,1.2203869 0.22973,2.6276848 -0.60378,3.8627732 -0.83351,1.2350877 -2.74341,2.6154026 -3.94672,3.5518381 -1.20332,0.936434 -3.11436,3.552058 -3.11436,3.552058 0,0 -1.91127,-2.615624 -3.114594,-3.552058 -1.20332,-0.9364355 -3.1132,-2.3167504 -3.94672,-3.5518378 -0.83351,-1.2350884 -0.94098,-2.6423863 -0.60355,-3.8627732 0.33744,-1.2203868 1.23205,-2.1982215 2.36812,-2.6639879 0.53253,-0.2183269 1.0216,-0.3158852 1.50039,-0.3136045 z"/></g><g id="g1822" transform="translate(0,-1.666666)" style="fill:#ff6188;fill-opacity:.24149659"><path id="path6925" d="m -4.3558219,18.666704 c -0.549378,-0.0026 -1.1107063,0.109388 -1.7217459,0.359902 -1.303552,0.53443 -2.3300851,1.656311 -2.7172656,3.056609 -0.3871792,1.400298 -0.2636901,3.014949 0.6926999,4.432116 0.9563907,1.417166 3.1479095,3.001291 4.5286202,4.075776 1.3807152,1.074485 3.573597534895,4.075553 3.573597534895,4.075553 0,0 2.192888465105,-3.001068 3.573596965105,-4.075553 1.3807152,-1.074485 3.572234,-2.65861 4.5286263,-4.075776 C 9.058692,25.098164 9.181949,23.483513 8.7947715,22.083215 8.4075885,20.682917 7.3810561,19.561036 6.0775058,19.026606 4.7739566,18.492176 3.6965817,18.588772 2.4794691,19.081363 1.2623497,19.573951 0.56459903,20.404161 8.4234895e-5,21.292414 -0.56442958,20.404161 -1.2621813,19.573951 -2.4792945,19.081363 -3.1258913,18.819676 -3.7331997,18.669665 -4.3558219,18.666707 Z m 0.5595552,1.027847 c 0.5426272,0.0026 1.0718727,0.133394 1.6353922,0.36146 1.0607378,0.429299 1.66897862,1.370816 2.160958734895,2.144946 C 0.49207213,21.426827 1.1000752,20.48531 2.1608204,20.056011 c 1.0607372,-0.429299 1.9999301,-0.513619 3.1360031,-0.04786 1.1360674,0.465765 2.0306859,1.4436 2.3681197,2.663987 0.3374353,1.220387 0.2297307,2.627685 -0.6037822,3.862773 -0.8335105,1.235088 -2.7434029,2.615403 -3.9467158,3.551838 -1.203322,0.936434 -3.114360965105,3.552058 -3.114360965105,3.552058 0,0 -1.911268134895,-2.615624 -3.114590134895,-3.552058 -1.2033141,-0.936435 -3.1132031,-2.31675 -3.9467148,-3.551838 -0.8335128,-1.235088 -0.9409864,-2.642386 -0.6035529,-3.862773 0.3374359,-1.220387 1.2320516,-2.198221 2.3681235,-2.663988 0.5325297,-0.218327 1.0215955,-0.315885 1.5003834,-0.313604 z" style="fill:#ff6188;fill-opacity:.24149659;stroke:none;stroke-width:.05157439px;stroke-linecap:butt;stroke-linejoin:miter;stroke-opacity:1"/><path style="fill:#ff6188;fill-opacity:.24149659;stroke:none;stroke-width:.05157439px;stroke-linecap:butt;stroke-linejoin:miter;stroke-opacity:1" id="path6951" d="m 45.644172,18.666704 c -0.54938,-0.0026 -1.1107,0.109388 -1.72174,0.359902 -1.30356,0.534429 -2.33009,1.65631 -2.71727,3.056609 -0.38718,1.400298 -0.26369,3.014949 0.6927,4.432116 0.95639,1.417165 3.14791,3.001291 4.52862,4.075776 1.380724,1.074485 3.573604,4.075553 3.573604,4.075553 0,0 2.19289,-3.001068 3.5736,-4.075553 1.38071,-1.074485 3.57223,-2.658611 4.52862,-4.075776 0.95639,-1.417167 1.07964,-3.031818 0.69247,-4.432116 -0.38719,-1.400299 -1.41372,-2.52218 -2.71727,-3.056609 -1.30355,-0.53443 -2.38092,-0.437834 -3.59804,0.05476 -1.21712,0.492587 -1.91487,1.322798 -2.47938,2.21105 -0.56451,-0.888252 -1.26227,-1.718463 -2.479384,-2.21105 -0.6466,-0.261687 -1.2539,-0.411698 -1.87653,-0.414656 z m 0.55956,1.027847 c 0.54263,0.0026 1.07187,0.133394 1.635394,0.36146 1.06074,0.429299 1.66898,1.370816 2.16096,2.144946 0.49199,-0.77413 1.09999,-1.715647 2.16074,-2.144946 1.06073,-0.429299 1.99993,-0.513619 3.136,-0.04786 1.13607,0.465765 2.03068,1.4436 2.36812,2.663987 0.33743,1.220387 0.22973,2.627684 -0.60378,3.862773 -0.83351,1.235088 -2.74341,2.615402 -3.94672,3.551838 -1.20332,0.936434 -3.11436,3.552058 -3.11436,3.552058 0,0 -1.91127,-2.615624 -3.114594,-3.552058 -1.20332,-0.936436 -3.1132,-2.31675 -3.94672,-3.551838 -0.83351,-1.235088 -0.94098,-2.642386 -0.60355,-3.862773 0.33744,-1.220387 1.23205,-2.198222 2.36812,-2.663988 0.53253,-0.218327 1.0216,-0.315885 1.50039,-0.313604 z"/><path id="path6953" d="m 20.644175,18.666704 c -0.54938,-0.0026 -1.1107,0.109388 -1.72174,0.359902 -1.30356,0.534429 -2.33009,1.65631 -2.71727,3.056609 -0.38718,1.400298 -0.26369,3.014949 0.6927,4.432116 0.95639,1.417165 3.14791,3.001291 4.52862,4.075776 1.380724,1.074485 3.573604,4.075553 3.573604,4.075553 0,0 2.19289,-3.001068 3.5736,-4.075553 1.38071,-1.074485 3.57223,-2.658611 4.52862,-4.075776 0.95639,-1.417167 1.07964,-3.031818 0.69247,-4.432116 -0.38719,-1.400299 -1.41372,-2.52218 -2.71727,-3.056609 -1.30355,-0.53443 -2.38092,-0.437834 -3.59804,0.05476 -1.21712,0.492587 -1.91487,1.322798 -2.47938,2.21105 -0.56451,-0.888252 -1.26227,-1.718463 -2.479384,-2.21105 -0.6466,-0.261687 -1.2539,-0.411698 -1.87653,-0.414656 z m 0.55956,1.027847 c 0.54263,0.0026 1.07187,0.133394 1.635394,0.36146 1.06074,0.429299 1.66898,1.370816 2.16096,2.144946 0.49199,-0.77413 1.09999,-1.715647 2.16074,-2.144946 1.06073,-0.429299 1.99993,-0.513619 3.136,-0.04786 1.13607,0.465765 2.03068,1.4436 2.36812,2.663987 0.33743,1.220387 0.22973,2.627684 -0.60378,3.862773 -0.83351,1.235088 -2.74341,2.615402 -3.94672,3.551838 -1.20332,0.936434 -3.11436,3.552058 -3.11436,3.552058 0,0 -1.91127,-2.615624 -3.114594,-3.552058 -1.20332,-0.936436 -3.1132,-2.31675 -3.94672,-3.551838 -0.83351,-1.235088 -0.94098,-2.642386 -0.60355,-3.862773 0.33744,-1.220387 1.23205,-2.198222 2.36812,-2.663988 0.53253,-0.218327 1.0216,-0.315885 1.50039,-0.313604 z" style="fill:#ff6188;fill-opacity:.24149659;stroke:none;stroke-width:.05157439px;stroke-linecap:butt;stroke-linejoin:miter;stroke-opacity:1"/></g></svg>