<svg xmlns="http://www.w3.org/2000/svg" xmlns:svg="http://www.w3.org/2000/svg" id="svg7516" width="500" height="370" version="1.1" viewBox="0 0 132.292 97.896"><metadata id="metadata7513"/><g id="layer1" transform="translate(0,-199.10418)"><g id="g2799" transform="translate(-0.23888279,-0.59545278)"><path style="fill:#ff9197;fill-opacity:1;fill-rule:evenodd;stroke:none;stroke-width:.6619544" id="path6306" d="m 25.203538,259.80805 -13.653117,12.82922 c -2.2090808,2.07572 -10.4366711,-4.87844 -9.0201012,-11.78833 1.4165611,-6.90972 19.1632292,-6.44625 19.1632292,-6.44625 2.391853,1.51146 4.61232,4.36956 3.509989,5.40536 z"/><path style="fill:#ffc7c7;fill-opacity:1;fill-rule:evenodd;stroke:none;stroke-width:.50838596" id="path6308" d="m 17.056719,274.57861 c 7.067386,18.36309 19.514452,8.04493 24.296729,7.52151 3.867876,-0.42253 7.07511,3.47384 15.702996,3.75401 8.627896,0.27963 8.71418,-3.02538 16.128521,-1.96169 7.414323,1.0636 8.473945,12.13301 31.864465,5.16219 30.90938,-9.32723 11.75368,-83.10386 -37.553282,-83.10386 -49.306943,0 -57.5068943,50.26493 -50.439429,68.62784 z"/><path id="path6310" d="m 101.41632,262.80642 17.05438,17.95949 c 2.75935,2.90598 13.395,-6.11883 11.76175,-15.5219 -1.63327,-9.40324 -24.2193,-9.58356 -24.2193,-9.58356 -3.07942,1.93406 -5.97381,5.69588 -4.59683,7.14597 z" style="fill:#ff9197;fill-opacity:1;fill-rule:evenodd;stroke:none;stroke-width:.61909699"/><path style="opacity:1;fill:#000;fill-opacity:1;stroke:none;stroke-width:.5366714;stroke-linecap:round;stroke-miterlimit:4;stroke-dasharray:none;stroke-opacity:1" id="path3158" d="m 24.7774,273.79738 c 0.473545,-0.32084 15.22881,-12.35015 28.515977,-12.5956 9.013158,-0.16744 16.571815,-1.12575 27.513396,3.40002 10.941582,4.52621 23.265327,13.3927 23.586247,13.58924 0.32084,0.19549 0.53385,1.31115 0.30191,1.8088 -0.23187,0.49704 -0.98131,0.34802 -1.25077,0.17007 -0.26947,-0.17884 -13.693753,-8.14084 -22.982439,-11.98277 -9.288703,-3.84183 -17.261349,-3.3909 -27.513388,-3.40002 -13.289463,-0.0176 -26.722288,11.02111 -27.151118,11.09764 -0.428838,0.0903 -1.452642,0.38396 -1.716853,-0.23492 -0.22003,-0.5137 0.223624,-1.53285 0.697082,-1.85299 z"/><path id="path4292" d="M 53.00434,246.11326 A 15.122181,15.369691 0.129123 0 1 38.075341,261.67804 15.122181,15.369691 0.129123 0 1 22.762402,246.50599 15.122181,15.369691 0.129123 0 1 37.691411,230.94096 15.122181,15.369691 0.129123 0 1 53.00434,246.11326 Z" style="opacity:1;fill:#fffefe;fill-opacity:1;stroke:none;stroke-width:2.64835143;stroke-linecap:round;stroke-miterlimit:4;stroke-dasharray:none;stroke-opacity:1"/><path id="path4294" d="m 35.63352,236.77858 c 1.805225,-1.87613 8.367893,-0.21039 10.66679,2.90868 2.298897,3.11802 2.278534,7.90853 -1.531108,8.87561 -3.809966,0.96515 -3.53109,-2.79744 -5.527766,-5.45016 -1.997238,-2.6528 -5.413807,-4.45801 -3.608153,-6.33361 z" style="fill:#fff;fill-opacity:1;stroke:none;stroke-width:2.38008118px;stroke-linecap:butt;stroke-linejoin:miter;stroke-opacity:1"/><ellipse id="ellipse4296" cx="71.231" cy="250.049" rx="2.436" ry="2.25" transform="matrix(0.99899919,0.04472821,-0.10815358,0.9941342,0,0)" style="opacity:1;fill:#fff;fill-opacity:1;stroke:none;stroke-width:10.78822327;stroke-linecap:round;stroke-linejoin:miter;stroke-miterlimit:4;stroke-dasharray:none;stroke-dashoffset:0;stroke-opacity:1"/><path id="path4298" d="m 38.593611,258.31405 c -6.51953,0.39797 -12.123447,-4.64675 -12.520403,-11.27263 -0.397018,-6.62578 4.563212,-12.32604 11.082075,-12.73515 6.518829,-0.40938 12.130714,4.6272 12.539295,11.27157 0.387638,6.64559 -4.581508,12.33761 -11.100967,12.73621 z" style="fill:#000;fill-opacity:1;stroke:none;stroke-width:3.1218152;stroke-miterlimit:4;stroke-dasharray:none;stroke-opacity:1"/><path id="path4300" d="m 34.84357,237.04541 c 1.75155,-1.84938 8.119075,-0.20688 10.349614,2.86723 2.230539,3.07375 2.21078,7.79624 -1.485568,8.74946 -3.69669,0.95184 -3.426106,-2.75765 -5.36341,-5.37266 -1.937856,-2.6152 -5.252826,-4.39454 -3.500864,-6.24359 z" style="fill:#fff;fill-opacity:1;stroke:none;stroke-width:2.32769799px;stroke-linecap:butt;stroke-linejoin:miter;stroke-opacity:1"/><ellipse id="ellipse4302" cx="69.772" cy="250.072" rx="2.364" ry="2.218" transform="matrix(0.99896699,0.04544181,-0.10647119,0.99431579,0,0)" style="opacity:1;fill:#fff;fill-opacity:1;stroke:none;stroke-width:10.5499897;stroke-linecap:round;stroke-linejoin:miter;stroke-miterlimit:4;stroke-dasharray:none;stroke-dashoffset:0;stroke-opacity:1"/><path style="fill:#ffc7c7;fill-opacity:1;stroke:none;stroke-width:.5742864" id="path3170" d="M 76.264345,244.09338 A 15.708436,16.535663 85.954687 0 1 60.771684,260.82913 15.708436,16.535663 85.954687 0 1 43.2627,246.23801 a 15.708436,16.535663 85.954687 0 1 15.464715,-16.75916 15.708436,16.535663 85.954687 0 1 17.533661,14.5643"/><path style="fill:#000;fill-opacity:1;stroke:none;stroke-width:.61729091" id="path3172" d="m 74.887565,249.64505 c -1.937532,5.76942 -7.431084,10.12548 -14.158923,10.56098 -8.745756,0.56717 -16.269989,-5.70455 -16.810245,-14.01264 -0.246327,-3.79004 1.003371,-7.35013 3.265652,-10.1559 0,0 1.424688,-1.60885 0.563048,-2.29243 -0.861534,-0.68376 -2.088546,1.23366 -2.088546,1.23366 -2.518094,3.1373 -3.907375,7.11204 -3.631522,11.34274 0.608543,9.29814 9.030409,16.31568 18.81843,15.68031 7.540389,-0.49003 13.695353,-5.37757 15.856411,-11.8482 0,0 0.507384,-1.32578 -0.38229,-1.64391 -0.889664,-0.31821 -1.432033,1.13539 -1.432033,1.13539 z"/><path id="path4276" d="m 98.521962,246.25826 a 15.122181,15.369691 0.129123 0 1 -14.929001,15.56477 15.122181,15.369691 0.129123 0 1 -15.312938,-15.17205 15.122181,15.369691 0.129123 0 1 14.929009,-15.56503 15.122181,15.369691 0.129123 0 1 15.31293,15.17231 z" style="opacity:1;fill:#fffefe;fill-opacity:1;stroke:none;stroke-width:2.64835143;stroke-linecap:round;stroke-miterlimit:4;stroke-dasharray:none;stroke-opacity:1"/><path id="path4278" d="m 81.151142,236.92357 c 1.805223,-1.87613 8.367891,-0.21039 10.666789,2.90868 2.298897,3.11803 2.278534,7.90854 -1.531108,8.87562 -3.809966,0.96514 -3.531089,-2.79745 -5.527766,-5.45017 -1.997237,-2.65279 -5.413806,-4.45801 -3.608152,-6.33361 z" style="fill:#fff;fill-opacity:1;stroke:none;stroke-width:2.38008118px;stroke-linecap:butt;stroke-linejoin:miter;stroke-opacity:1"/><ellipse id="ellipse4280" cx="116.589" cy="248.154" rx="2.436" ry="2.25" transform="matrix(0.99899919,0.04472821,-0.10815358,0.9941342,0,0)" style="opacity:1;fill:#fff;fill-opacity:1;stroke:none;stroke-width:10.78822327;stroke-linecap:round;stroke-linejoin:miter;stroke-miterlimit:4;stroke-dasharray:none;stroke-dashoffset:0;stroke-opacity:1"/><path id="path4282" d="m 84.111232,258.45903 c -6.51953,0.39798 -12.123447,-4.64675 -12.520403,-11.27261 -0.397018,-6.62579 4.563212,-12.32605 11.082076,-12.73516 6.518829,-0.40937 12.130714,4.6272 12.539294,11.27156 0.387638,6.6456 -4.581507,12.33761 -11.100967,12.73621 z" style="fill:#000;fill-opacity:1;stroke:none;stroke-width:3.1218152;stroke-miterlimit:4;stroke-dasharray:none;stroke-opacity:1"/><path id="path4284" d="m 80.361191,237.19041 c 1.75155,-1.84938 8.119075,-0.20688 10.349614,2.86723 2.23054,3.07375 2.21078,7.79623 -1.485568,8.74946 -3.69669,0.95182 -3.426106,-2.75765 -5.36341,-5.37267 -1.937856,-2.6152 -5.252826,-4.39455 -3.500864,-6.24358 z" style="fill:#fff;fill-opacity:1;stroke:none;stroke-width:2.32769799px;stroke-linecap:butt;stroke-linejoin:miter;stroke-opacity:1"/><ellipse id="ellipse4286" cx="115.131" cy="248.145" rx="2.364" ry="2.218" transform="matrix(0.99896699,0.04544181,-0.10647119,0.99431579,0,0)" style="opacity:1;fill:#fff;fill-opacity:1;stroke:none;stroke-width:10.5499897;stroke-linecap:round;stroke-linejoin:miter;stroke-miterlimit:4;stroke-dasharray:none;stroke-dashoffset:0;stroke-opacity:1"/></g></g></svg>